<?xml version="1.0" standalone="no"?>
<!DOCTYPE svg PUBLIC "-//W3C//DTD SVG 20010904//EN"
 "http://www.w3.org/TR/2001/REC-SVG-20010904/DTD/svg10.dtd">
<svg version="1.0" xmlns="http://www.w3.org/2000/svg"
 width="260.000000pt" height="260.000000pt" viewBox="0 0 260.000000 260.000000"
 preserveAspectRatio="xMidYMid meet">
<metadata>
Created by potrace 1.14, written by Peter Selinger 2001-2017
</metadata>
<g transform="translate(0.000000,260.000000) scale(0.100000,-0.100000)"
fill="#000000" stroke="none">
<path d="M0 1300 l0 -1300 1300 0 1300 0 0 1300 0 1300 -1300 0 -1300 0 0
-1300z m894 1079 c15 -7 30 -26 37 -48 7 -19 24 -53 40 -74 53 -73 47 -141
-17 -197 -29 -25 -43 -30 -87 -30 -98 0 -154 60 -144 152 10 84 89 208 133
208 7 0 24 -5 38 -11z m448 -9 c14 -11 28 -32 31 -47 3 -16 19 -46 36 -67 17
-21 32 -48 33 -60 7 -100 -50 -166 -142 -166 -79 0 -142 59 -142 134 0 81 89
226 139 226 11 0 32 -9 45 -20z m443 -5 c14 -13 25 -33 25 -44 0 -11 11 -32
24 -48 35 -43 46 -68 46 -110 0 -80 -60 -133 -151 -133 -46 0 -55 4 -89 38
-53 52 -59 92 -27 171 56 138 116 183 172 126z m-874 -434 c24 -19 24 -23 27
-215 l3 -196 145 0 144 0 0 195 c0 182 1 196 20 215 11 11 33 20 50 20 17 0
39 -9 50 -20 19 -19 20 -33 20 -215 l0 -195 144 0 145 0 3 196 c3 192 3 196
27 215 31 25 69 24 98 -3 22 -21 23 -26 23 -214 l0 -192 43 -7 c75 -13 145
-45 195 -90 55 -49 108 -141 118 -203 6 -38 5 -41 -20 -48 -39 -9 -121 14
-162 47 -51 41 -84 38 -132 -10 -73 -74 -149 -74 -228 -1 -56 52 -82 52 -138
0 -79 -73 -155 -73 -228 1 -51 52 -82 52 -135 0 -75 -73 -157 -74 -228 -1 -52
53 -82 53 -138 0 -47 -46 -91 -62 -141 -50 -44 10 -113 44 -150 74 l-28 24 33
61 c56 107 153 175 277 196 l42 7 0 191 c0 182 1 192 22 214 26 28 67 30 99 4z
m-332 -911 c69 -16 141 -7 198 25 l46 25 56 -27 c78 -38 173 -38 254 -1 l57
27 58 -27 c81 -37 177 -37 252 0 l55 27 55 -27 c45 -22 69 -27 130 -27 65 0
82 4 133 32 l58 32 47 -21 c27 -13 77 -23 120 -26 l72 -5 0 -332 0 -333 57 -4
c43 -4 61 -10 75 -28 25 -31 23 -66 -7 -95 l-24 -25 -971 0 -971 0 -24 25
c-30 29 -32 64 -7 95 14 18 32 24 75 28 l57 4 0 358 0 357 48 -22 c26 -12 71
-28 101 -35z"/>
</g>
</svg>
